<?xml version="1.0" encoding="iso-8859-1"?>
<!-- Uploaded to: SVG Repo, www.svgrepo.com, Generator: SVG Repo Mixer Tools -->
<!DOCTYPE svg PUBLIC "-//W3C//DTD SVG 1.1//EN" "http://www.w3.org/Graphics/SVG/1.1/DTD/svg11.dtd">
<svg fill="#000000" version="1.1" id="Capa_1" xmlns="http://www.w3.org/2000/svg" xmlns:xlink="http://www.w3.org/1999/xlink" 
	 width="800px" height="800px" viewBox="0 0 781.229 781.23"
	 xml:space="preserve">
<g>
	<g id="Capa_2">
		<g>
			<g>
				<path d="M216.987,781.23l0.301-503.9l-97.2,0.1c-10.4-0.2-19.2-5.9-22.9-14.8c-3.7-8.8-1.6-19.1,5.2-26.2l258.101-223.5
					c22.6-20.8,46-13.3,60.8,0.1l257.899,223.5c6.7,6.7,8.5,16.5,4.7,25.6c-3.8,9.2-12.3,15.1-21.6,15.1l-98.4-0.1l-0.399,503.7
					L216.987,781.23z M237.088,257.43l-0.3,503.9l306.899-0.2l0.4-503.7l118.2,0.1c4.2-0.1,5.399-4.6,3-6.8l-257.3-222.9l-0.101-0.1
					c-9.2-7.1-19.2-13-34.399,0.2l-257,222.4c-2.8,2.4-2.2,7.5,4,7.2L237.088,257.43z"/>
			</g>
		</g>
	</g>
</g>
</svg>